<svg xmlns="http://www.w3.org/2000/svg" viewBox="0 0 1280 820" width="1280" height="820">
  <defs>
    <marker id="arrowA" markerWidth="10" markerHeight="7" refX="9" refY="3.5" orient="auto">
      <polygon points="0 0, 10 3.5, 0 7" fill="#d97757"/>
    </marker>
    <marker id="arrowB" markerWidth="10" markerHeight="7" refX="9" refY="3.5" orient="auto">
      <polygon points="0 0, 10 3.5, 0 7" fill="#7b8b5c"/>
    </marker>
    <marker id="arrowC" markerWidth="10" markerHeight="7" refX="9" refY="3.5" orient="auto">
      <polygon points="0 0, 10 3.5, 0 7" fill="#8c6f5a"/>
    </marker>
    <marker id="arrowE" markerWidth="10" markerHeight="7" refX="9" refY="3.5" orient="auto">
      <polygon points="0 0, 10 3.5, 0 7" fill="#b45309"/>
    </marker>
    <marker id="arrowF" markerWidth="10" markerHeight="7" refX="9" refY="3.5" orient="auto">
      <polygon points="0 0, 10 3.5, 0 7" fill="#9a6fb0"/>
    </marker>
    <marker id="arrowG" markerWidth="10" markerHeight="7" refX="9" refY="3.5" orient="auto">
      <polygon points="0 0, 10 3.5, 0 7" fill="#d97757"/>
    </marker>
    <marker id="arrowH" markerWidth="10" markerHeight="7" refX="9" refY="3.5" orient="auto">
      <polygon points="0 0, 10 3.5, 0 7" fill="#8f8a80"/>
    </marker>
    <style>
    text { font-family: 'Helvetica Neue', Helvetica, Arial, 'PingFang SC', 'Microsoft YaHei', sans-serif; }
    .title { font-size: 24px; font-weight: 700; fill: #141413; }
    .subtitle { font-size: 13px; font-weight: 500; fill: #8f8a80; }
    .section { font-size: 13px; font-weight: 700; fill: #8b7355; letter-spacing: 1.4px; }
    .section-sub { font-size: 12px; font-weight: 500; fill: #b4aba0; }
    .node-title { font-size: 18px; font-weight: 700; fill: #141413; }
    .node-sub { font-size: 12px; font-weight: 500; fill: #6b6257; }
    .node-type { font-size: 11px; font-weight: 700; fill: #a29a8f; letter-spacing: 0.08em; }
    .arrow-label { font-size: 12px; font-weight: 600; fill: #6b6257; }
    .legend { font-size: 12px; font-weight: 500; fill: #6b6257; }
    .footnote { font-size: 12px; font-weight: 500; fill: #a29a8f; }
    </style>
  </defs>
  <rect width="1280.0" height="820.0" fill="#f8f6f3"/>
  <text x="640.0" y="56" text-anchor="middle" class="title">PRD Productivity Toolkit Workflow</text>
  <text x="640.0" y="82" text-anchor="middle" class="subtitle">Draft, review, and close the loop in Feishu/Lark with a real delivery gate</text>
  <rect x="44.0" y="126.0" width="268.0" height="356.0" rx="16.0" fill="none" stroke="#ded8cf" stroke-width="1.4" stroke-dasharray="5 4"/>
  <text x="62.0" y="150.0" class="section">01 // SIGNAL INTAKE</text>
  <rect x="356.0" y="126.0" width="268.0" height="356.0" rx="16.0" fill="none" stroke="#ded8cf" stroke-width="1.4" stroke-dasharray="5 4"/>
  <text x="374.0" y="150.0" class="section">02 // DRAFT AUTHORING</text>
  <rect x="668.0" y="126.0" width="268.0" height="356.0" rx="16.0" fill="none" stroke="#ded8cf" stroke-width="1.4" stroke-dasharray="5 4"/>
  <text x="686.0" y="150.0" class="section">03 // QUALITY REVIEW</text>
  <rect x="980.0" y="126.0" width="256.0" height="356.0" rx="16.0" fill="none" stroke="#ded8cf" stroke-width="1.4" stroke-dasharray="5 4"/>
  <text x="998.0" y="150.0" class="section">04 // COLLABORATION GATE</text>
  <rect x="44.0" y="528.0" width="1192.0" height="170.0" rx="16.0" fill="none" stroke="#ded8cf" stroke-width="1.4" stroke-dasharray="5 4"/>
  <text x="62.0" y="552.0" class="section">05 // FOUNDATION</text>
  <path d="M 272.0,289.0 L 292.4,289.0 L 365.6,224.0 L 386.0,224.0" fill="none" stroke="#d97757" stroke-width="2.0" marker-end="url(#arrowA)"/>
  <path d="M 490.0,266.0 L 490.0,286.4 L 489.0,287.6 L 489.0,308.0" fill="none" stroke="#d97757" stroke-width="2.0" marker-end="url(#arrowA)"/>
  <path d="M 550.0,366.0 L 640.0,366.0 L 640.0,224.0 L 698.0,224.0" fill="none" stroke="#d97757" stroke-width="2.0" marker-end="url(#arrowA)"/>
  <path d="M 802.0,266.0 L 802.0,332.0" fill="none" stroke="#b45309" stroke-width="2.0" marker-end="url(#arrowE)"/>
  <path d="M 888.0,366.0 L 956.0,366.0 L 956.0,224.0 L 1002.0,224.0" fill="none" stroke="#d97757" stroke-width="2.0" marker-end="url(#arrowA)"/>
  <path d="M 1108.0,266.0 L 1108.0,326.0" fill="none" stroke="#d97757" stroke-width="2.0" marker-end="url(#arrowA)"/>
  <path d="M 640.0,582.0 L 330.0,582.0 L 330.0,238.0 L 386.0,224.0" fill="none" stroke="#8c6f5a" stroke-width="2.0" marker-end="url(#arrowC)"/>
  <path d="M 640.0,582.0 L 650.0,582.0 L 650.0,224.0 L 698.0,224.0" fill="none" stroke="#8c6f5a" stroke-width="2.0" marker-end="url(#arrowC)"/>
  <path d="M 640.0,582.0 L 968.0,582.0 L 968.0,224.0 L 1002.0,224.0" fill="none" stroke="#8c6f5a" stroke-width="2.0" marker-end="url(#arrowC)"/>
  <rect x="84.0" y="250.0" width="188.0" height="78.0" rx="10.0" fill="#e9f1fb" stroke="#8c6f5a" stroke-width="1.8"/>
  <text x="178.0" y="268.0" text-anchor="middle" class="node-type">SIGNALS</text>
  <text x="178.0" y="295.0" text-anchor="middle" class="node-title">Business Inputs</text>
  <text x="178.0" y="317.0" text-anchor="middle" class="node-sub">briefs, calls, raw asks</text>
  <rect x="386.0" y="182.0" width="208.0" height="84.0" rx="10.0" fill="#f7ecda" stroke="#d97757" stroke-width="2.0"/>
  <rect x="392.0" y="188.0" width="196.0" height="72.0" rx="7.0" fill="none" stroke="#d97757" stroke-width="1.2" opacity="0.65"/>
  <text x="490.0" y="200.0" text-anchor="middle" class="node-type">AUTHORING</text>
  <text x="490.0" y="230.0" text-anchor="middle" class="node-title">create-prd-skill</text>
  <text x="490.0" y="252.0" text-anchor="middle" class="node-sub">L1-L4 scoped drafting</text>
  <path d="M 428.0 308.0 L 532.0 308.0 L 550.0 326.0 L 550.0 424.0 L 428.0 424.0 Z" fill="#fffcf7" stroke="#8c6f5a" stroke-width="2.0"/>
  <path d="M 532.0 308.0 L 532.0 326.0 L 550.0 326.0" fill="none" stroke="#8c6f5a" stroke-width="2.0"/>
  <line x1="446.0" y1="334.0" x2="522.0" y2="334.0" stroke="#d0b893" stroke-width="1.2"/>
  <line x1="446.0" y1="348.0" x2="522.0" y2="348.0" stroke="#d0b893" stroke-width="1.2"/>
  <line x1="446.0" y1="362.0" x2="522.0" y2="362.0" stroke="#d0b893" stroke-width="1.2"/>
  <line x1="446.0" y1="376.0" x2="522.0" y2="376.0" stroke="#d0b893" stroke-width="1.2"/>
  <text x="489.0" y="326.0" text-anchor="middle" class="node-type">OUTPUT</text>
  <text x="489.0" y="450.0" text-anchor="middle" class="node-title">PRD Draft</text>
  <text x="489.0" y="468.0" text-anchor="middle" class="node-sub">chaptered structure</text>
  <rect x="698.0" y="182.0" width="208.0" height="84.0" rx="10.0" fill="#cfe6df" stroke="#7b8b5c" stroke-width="2.0"/>
  <rect x="704.0" y="188.0" width="196.0" height="72.0" rx="7.0" fill="none" stroke="#7b8b5c" stroke-width="1.2" opacity="0.65"/>
  <text x="802.0" y="200.0" text-anchor="middle" class="node-type">QUALITY</text>
  <text x="802.0" y="230.0" text-anchor="middle" class="node-title">check-prd-skill</text>
  <text x="802.0" y="252.0" text-anchor="middle" class="node-sub">Path A / Path B review</text>
  <rect x="716.0" y="332.0" width="172.0" height="68.0" rx="10.0" fill="#efe8de" stroke="#d0c3b3" stroke-width="1.8"/>
  <text x="802.0" y="350.0" text-anchor="middle" class="node-type">OUTPUT</text>
  <text x="802.0" y="372.0" text-anchor="middle" class="node-title">Findings Pack</text>
  <text x="802.0" y="394.0" text-anchor="middle" class="node-sub">gaps, risks, next steps</text>
  <rect x="1002.0" y="182.0" width="212.0" height="84.0" rx="10.0" fill="#e9f1fb" stroke="#8c6f5a" stroke-width="2.0"/>
  <rect x="1008.0" y="188.0" width="200.0" height="72.0" rx="7.0" fill="none" stroke="#8c6f5a" stroke-width="1.2" opacity="0.65"/>
  <text x="1108.0" y="200.0" text-anchor="middle" class="node-type">LARK CLI</text>
  <text x="1108.0" y="230.0" text-anchor="middle" class="node-title">Feishu Assistant</text>
  <text x="1108.0" y="252.0" text-anchor="middle" class="node-sub">anchored comments + waivers</text>
  <path d="M 1048.0 326.0 L 1168.0 326.0 L 1190.0 368.0 L 1168.0 410.0 L 1048.0 410.0 L 1026.0 368.0 Z" fill="#f4e4c1" stroke="#d97757" stroke-width="2.0"/>
  <text x="1108.0" y="344.0" text-anchor="middle" class="node-type">DECISION</text>
  <text x="1108.0" y="374.0" text-anchor="middle" class="node-title">Delivery Gate</text>
  <text x="1108.0" y="396.0" text-anchor="middle" class="node-sub">ready, revise, waive</text>
  <rect x="272.0" y="582.0" width="736.0" height="82.0" rx="10.0" fill="#e8e6e3" stroke="#8f8a80" stroke-width="1.8"/>
  <text x="640.0" y="600.0" text-anchor="middle" class="node-type">FOUNDATION</text>
  <text x="640.0" y="629.0" text-anchor="middle" class="node-title">prd-quality-framework</text>
  <text x="640.0" y="651.0" text-anchor="middle" class="node-sub">L1-L4, G1/G2/G3, chapter standards</text>
  <rect x="304.5" y="226.5" width="49" height="20" rx="6" fill="#f8f6f3" opacity="0.96"/>
  <text x="329.0" y="240.5" text-anchor="middle" class="arrow-label">shape</text>
  <rect x="465.5" y="262.2" width="49" height="20" rx="6" fill="#f8f6f3" opacity="0.96"/>
  <text x="490.0" y="276.2" text-anchor="middle" class="arrow-label">draft</text>
  <rect x="594.0" y="281.0" width="56" height="20" rx="6" fill="#f8f6f3" opacity="0.96"/>
  <text x="622.0" y="295.0" text-anchor="middle" class="arrow-label">review</text>
  <rect x="763.0" y="285.0" width="42" height="20" rx="6" fill="#f8f6f3" opacity="0.96"/>
  <text x="784.0" y="299.0" text-anchor="middle" class="arrow-label">find</text>
  <rect x="910.0" y="281.0" width="56" height="20" rx="6" fill="#f8f6f3" opacity="0.96"/>
  <text x="938.0" y="295.0" text-anchor="middle" class="arrow-label">anchor</text>
  <rect x="1062.0" y="282.0" width="56" height="20" rx="6" fill="#f8f6f3" opacity="0.96"/>
  <text x="1090.0" y="296.0" text-anchor="middle" class="arrow-label">decide</text>
  <rect x="1050.0" y="744.0" width="198" height="90" rx="10" fill="#fffaf3" opacity="0.88"/>
  <line x1="1060.0" y1="758.0" x2="1090.0" y2="758.0" stroke="#d97757" stroke-width="2.0" marker-end="url(#arrowA)"/>
  <text x="1100.0" y="762.0" class="legend">Primary workflow</text>
  <line x1="1060.0" y1="780.0" x2="1090.0" y2="780.0" stroke="#b45309" stroke-width="2.0" marker-end="url(#arrowE)"/>
  <text x="1100.0" y="784.0" class="legend">Review findings</text>
  <line x1="1060.0" y1="802.0" x2="1090.0" y2="802.0" stroke="#8c6f5a" stroke-width="2.0" marker-end="url(#arrowC)"/>
  <text x="1100.0" y="806.0" class="legend">Framework guidance</text>
</svg>